<svg width="516" height="281" viewBox="0 0 516 281" fill="none" xmlns="http://www.w3.org/2000/svg">
<path d="M37.024 63.0512L107.12 19.072C120.387 10.7488 137.6 20.3184 137.6 36.0208V123.979C137.6 139.68 120.387 149.251 107.12 140.928L37.024 96.9488C24.5456 89.1184 24.5456 70.8816 37.024 63.0512Z" fill="#1EA5FC"/>
<path d="M122.976 63.0512L52.88 19.072C39.6128 10.7488 22.4 20.3184 22.4 36.0208V123.979C22.4 139.68 39.6128 149.251 52.88 140.928L122.976 96.9488C135.454 89.1184 135.454 70.8816 122.976 63.0512Z" fill="#7B6EF6"/>
<path d="M68.56 171.84V228H54.88V194.32L42.32 228H31.28L18.64 194.24V228H4.96V171.84H21.12L36.88 210.72L52.48 171.84H68.56ZM128.238 231.28V244.4H78.6375V231.28H128.238ZM174.179 171.84V182.8H151.299V194.64H168.419V205.28H151.299V228H137.619V171.84H174.179ZM193.449 168.8V228H179.769V168.8H193.449ZM208.643 178.72C206.243 178.72 204.27 178.027 202.723 176.64C201.23 175.2 200.483 173.44 200.483 171.36C200.483 169.227 201.23 167.467 202.723 166.08C204.27 164.64 206.243 163.92 208.643 163.92C210.99 163.92 212.91 164.64 214.403 166.08C215.95 167.467 216.723 169.227 216.723 171.36C216.723 173.44 215.95 175.2 214.403 176.64C212.91 178.027 210.99 178.72 208.643 178.72ZM215.443 183.36V228H201.763V183.36H215.443ZM221.037 205.68C221.037 201.04 221.97 196.987 223.837 193.52C225.757 190.053 228.397 187.387 231.757 185.52C235.17 183.653 239.064 182.72 243.437 182.72C249.037 182.72 253.704 184.187 257.437 187.12C261.224 190.053 263.704 194.187 264.877 199.52H250.317C249.09 196.107 246.717 194.4 243.197 194.4C240.69 194.4 238.69 195.387 237.197 197.36C235.704 199.28 234.957 202.053 234.957 205.68C234.957 209.307 235.704 212.107 237.197 214.08C238.69 216 240.69 216.96 243.197 216.96C246.717 216.96 249.09 215.253 250.317 211.84H264.877C263.704 217.067 261.224 221.173 257.437 224.16C253.65 227.147 248.984 228.64 243.437 228.64C239.064 228.64 235.17 227.707 231.757 225.84C228.397 223.973 225.757 221.307 223.837 217.84C221.97 214.373 221.037 210.32 221.037 205.68ZM297.874 228L284.274 209.28V228H270.594V168.8H284.274V201.52L297.794 183.36H314.674L296.114 205.76L314.834 228H297.874ZM336.607 228.64C332.714 228.64 329.247 227.973 326.207 226.64C323.167 225.307 320.767 223.493 319.007 221.2C317.247 218.853 316.261 216.24 316.047 213.36H329.567C329.727 214.907 330.447 216.16 331.727 217.12C333.007 218.08 334.581 218.56 336.447 218.56C338.154 218.56 339.461 218.24 340.367 217.6C341.327 216.907 341.807 216.027 341.807 214.96C341.807 213.68 341.141 212.747 339.807 212.16C338.474 211.52 336.314 210.827 333.327 210.08C330.127 209.333 327.461 208.56 325.327 207.76C323.194 206.907 321.354 205.6 319.807 203.84C318.261 202.027 317.487 199.6 317.487 196.56C317.487 194 318.181 191.68 319.567 189.6C321.007 187.467 323.087 185.787 325.807 184.56C328.581 183.333 331.861 182.72 335.647 182.72C341.247 182.72 345.647 184.107 348.847 186.88C352.101 189.653 353.967 193.333 354.447 197.92H341.807C341.594 196.373 340.901 195.147 339.727 194.24C338.607 193.333 337.114 192.88 335.247 192.88C333.647 192.88 332.421 193.2 331.567 193.84C330.714 194.427 330.287 195.253 330.287 196.32C330.287 197.6 330.954 198.56 332.287 199.2C333.674 199.84 335.807 200.48 338.687 201.12C341.994 201.973 344.687 202.827 346.767 203.68C348.847 204.48 350.661 205.813 352.207 207.68C353.807 209.493 354.634 211.947 354.687 215.04C354.687 217.653 353.941 220 352.447 222.08C351.007 224.107 348.901 225.707 346.127 226.88C343.407 228.053 340.234 228.64 336.607 228.64Z" fill="#1EA5FC"/>
</svg>
