<svg width="281" height="71" viewBox="0 0 281 71" fill="none" xmlns="http://www.w3.org/2000/svg">
<g filter="url(#filter0_d_505_247)">
<mask id="path-1-outside-1_505_247" maskUnits="userSpaceOnUse" x="3" y="-1" width="275" height="65" fill="black">
<rect fill="white" x="3" y="-1" width="275" height="65"/>
<path d="M53.12 6.328V51H44.16V21.944L32.192 51H25.408L13.376 21.944V51H4.416V6.328H14.592L28.8 39.544L43.008 6.328H53.12ZM100.699 53.56V62.072H63.1305V53.56H100.699ZM137.565 6.328V13.56H118.941V25.016H133.213V32.12H118.941V51H109.981V6.328H137.565ZM151.599 3.64V51H142.639V3.64H151.599ZM163.715 11.32C162.136 11.32 160.814 10.8293 159.747 9.848C158.723 8.824 158.211 7.56533 158.211 6.072C158.211 4.57866 158.723 3.34133 159.747 2.36C160.814 1.336 162.136 0.823997 163.715 0.823997C165.294 0.823997 166.595 1.336 167.619 2.36C168.686 3.34133 169.219 4.57866 169.219 6.072C169.219 7.56533 168.686 8.824 167.619 9.848C166.595 10.8293 165.294 11.32 163.715 11.32ZM168.131 15.544V51H159.171V15.544H168.131ZM173.4 33.272C173.4 29.6027 174.146 26.4027 175.64 23.672C177.133 20.8987 179.202 18.7653 181.848 17.272C184.493 15.736 187.522 14.968 190.936 14.968C195.33 14.968 198.957 16.0773 201.816 18.296C204.717 20.472 206.658 23.544 207.64 27.512H197.976C197.464 25.976 196.589 24.7813 195.352 23.928C194.157 23.032 192.664 22.584 190.872 22.584C188.312 22.584 186.285 23.5227 184.792 25.4C183.298 27.2347 182.552 29.8587 182.552 33.272C182.552 36.6427 183.298 39.2667 184.792 41.144C186.285 42.9787 188.312 43.896 190.872 43.896C194.498 43.896 196.866 42.2747 197.976 39.032H207.64C206.658 42.872 204.717 45.9227 201.816 48.184C198.914 50.4453 195.288 51.576 190.936 51.576C187.522 51.576 184.493 50.8293 181.848 49.336C179.202 47.8 177.133 45.6667 175.64 42.936C174.146 40.1627 173.4 36.9413 173.4 33.272ZM233.916 51L221.884 35.896V51H212.924V3.64H221.884V30.584L233.788 15.544H245.436L229.82 33.336L245.564 51H233.916ZM262.586 51.576C259.685 51.576 257.082 51.064 254.778 50.04C252.474 48.9733 250.64 47.544 249.274 45.752C247.952 43.96 247.226 41.976 247.098 39.8H256.122C256.293 41.1653 256.954 42.296 258.106 43.192C259.301 44.088 260.773 44.536 262.522 44.536C264.229 44.536 265.552 44.1947 266.49 43.512C267.472 42.8293 267.962 41.9547 267.962 40.888C267.962 39.736 267.365 38.8827 266.17 38.328C265.018 37.7307 263.162 37.0907 260.602 36.408C257.957 35.768 255.781 35.1067 254.074 34.424C252.41 33.7413 250.96 32.696 249.722 31.288C248.528 29.88 247.93 27.9813 247.93 25.592C247.93 23.6293 248.485 21.8373 249.594 20.216C250.746 18.5947 252.368 17.3147 254.458 16.376C256.592 15.4373 259.088 14.968 261.946 14.968C266.17 14.968 269.541 16.0347 272.058 18.168C274.576 20.2587 275.962 23.096 276.218 26.68H267.642C267.514 25.272 266.917 24.1627 265.85 23.352C264.826 22.4987 263.44 22.072 261.69 22.072C260.069 22.072 258.81 22.3707 257.914 22.968C257.061 23.5653 256.634 24.3973 256.634 25.464C256.634 26.6587 257.232 27.576 258.426 28.216C259.621 28.8133 261.477 29.432 263.994 30.072C266.554 30.712 268.666 31.3733 270.33 32.056C271.994 32.7387 273.424 33.8053 274.618 35.256C275.856 36.664 276.496 38.5413 276.538 40.888C276.538 42.936 275.962 44.7707 274.81 46.392C273.701 48.0133 272.08 49.2933 269.946 50.232C267.856 51.128 265.402 51.576 262.586 51.576Z"/>
</mask>
<path d="M53.12 6.328V51H44.16V21.944L32.192 51H25.408L13.376 21.944V51H4.416V6.328H14.592L28.8 39.544L43.008 6.328H53.12ZM100.699 53.56V62.072H63.1305V53.56H100.699ZM137.565 6.328V13.56H118.941V25.016H133.213V32.12H118.941V51H109.981V6.328H137.565ZM151.599 3.64V51H142.639V3.64H151.599ZM163.715 11.32C162.136 11.32 160.814 10.8293 159.747 9.848C158.723 8.824 158.211 7.56533 158.211 6.072C158.211 4.57866 158.723 3.34133 159.747 2.36C160.814 1.336 162.136 0.823997 163.715 0.823997C165.294 0.823997 166.595 1.336 167.619 2.36C168.686 3.34133 169.219 4.57866 169.219 6.072C169.219 7.56533 168.686 8.824 167.619 9.848C166.595 10.8293 165.294 11.32 163.715 11.32ZM168.131 15.544V51H159.171V15.544H168.131ZM173.4 33.272C173.4 29.6027 174.146 26.4027 175.64 23.672C177.133 20.8987 179.202 18.7653 181.848 17.272C184.493 15.736 187.522 14.968 190.936 14.968C195.33 14.968 198.957 16.0773 201.816 18.296C204.717 20.472 206.658 23.544 207.64 27.512H197.976C197.464 25.976 196.589 24.7813 195.352 23.928C194.157 23.032 192.664 22.584 190.872 22.584C188.312 22.584 186.285 23.5227 184.792 25.4C183.298 27.2347 182.552 29.8587 182.552 33.272C182.552 36.6427 183.298 39.2667 184.792 41.144C186.285 42.9787 188.312 43.896 190.872 43.896C194.498 43.896 196.866 42.2747 197.976 39.032H207.64C206.658 42.872 204.717 45.9227 201.816 48.184C198.914 50.4453 195.288 51.576 190.936 51.576C187.522 51.576 184.493 50.8293 181.848 49.336C179.202 47.8 177.133 45.6667 175.64 42.936C174.146 40.1627 173.4 36.9413 173.4 33.272ZM233.916 51L221.884 35.896V51H212.924V3.64H221.884V30.584L233.788 15.544H245.436L229.82 33.336L245.564 51H233.916ZM262.586 51.576C259.685 51.576 257.082 51.064 254.778 50.04C252.474 48.9733 250.64 47.544 249.274 45.752C247.952 43.96 247.226 41.976 247.098 39.8H256.122C256.293 41.1653 256.954 42.296 258.106 43.192C259.301 44.088 260.773 44.536 262.522 44.536C264.229 44.536 265.552 44.1947 266.49 43.512C267.472 42.8293 267.962 41.9547 267.962 40.888C267.962 39.736 267.365 38.8827 266.17 38.328C265.018 37.7307 263.162 37.0907 260.602 36.408C257.957 35.768 255.781 35.1067 254.074 34.424C252.41 33.7413 250.96 32.696 249.722 31.288C248.528 29.88 247.93 27.9813 247.93 25.592C247.93 23.6293 248.485 21.8373 249.594 20.216C250.746 18.5947 252.368 17.3147 254.458 16.376C256.592 15.4373 259.088 14.968 261.946 14.968C266.17 14.968 269.541 16.0347 272.058 18.168C274.576 20.2587 275.962 23.096 276.218 26.68H267.642C267.514 25.272 266.917 24.1627 265.85 23.352C264.826 22.4987 263.44 22.072 261.69 22.072C260.069 22.072 258.81 22.3707 257.914 22.968C257.061 23.5653 256.634 24.3973 256.634 25.464C256.634 26.6587 257.232 27.576 258.426 28.216C259.621 28.8133 261.477 29.432 263.994 30.072C266.554 30.712 268.666 31.3733 270.33 32.056C271.994 32.7387 273.424 33.8053 274.618 35.256C275.856 36.664 276.496 38.5413 276.538 40.888C276.538 42.936 275.962 44.7707 274.81 46.392C273.701 48.0133 272.08 49.2933 269.946 50.232C267.856 51.128 265.402 51.576 262.586 51.576Z" fill="#EBEEF5"/>
<path d="M53.12 6.328H54.12V5.328H53.12V6.328ZM53.12 51V52H54.12V51H53.12ZM44.16 51H43.16V52H44.16V51ZM44.16 21.944H45.16L43.2354 21.5631L44.16 21.944ZM32.192 51V52H32.8616L33.1166 51.3809L32.192 51ZM25.408 51L24.4841 51.3826L24.7398 52H25.408V51ZM13.376 21.944L14.2999 21.5614L12.376 21.944H13.376ZM13.376 51V52H14.376V51H13.376ZM4.416 51H3.416V52H4.416V51ZM4.416 6.328V5.328H3.416V6.328H4.416ZM14.592 6.328L15.5114 5.93472L15.2519 5.328H14.592V6.328ZM28.8 39.544L27.8806 39.9373L28.8 42.0867L29.7194 39.9373L28.8 39.544ZM43.008 6.328V5.328H42.3481L42.0886 5.93472L43.008 6.328ZM52.12 6.328V51H54.12V6.328H52.12ZM53.12 50H44.16V52H53.12V50ZM45.16 51V21.944H43.16V51H45.16ZM43.2354 21.5631L31.2674 50.6191L33.1166 51.3809L45.0846 22.3249L43.2354 21.5631ZM32.192 50H25.408V52H32.192V50ZM26.3319 50.6174L14.2999 21.5614L12.4521 22.3266L24.4841 51.3826L26.3319 50.6174ZM12.376 21.944V51H14.376V21.944H12.376ZM13.376 50H4.416V52H13.376V50ZM5.416 51V6.328H3.416V51H5.416ZM4.416 7.328H14.592V5.328H4.416V7.328ZM13.6726 6.72128L27.8806 39.9373L29.7194 39.1507L15.5114 5.93472L13.6726 6.72128ZM29.7194 39.9373L43.9274 6.72128L42.0886 5.93472L27.8806 39.1507L29.7194 39.9373ZM43.008 7.328H53.12V5.328H43.008V7.328ZM100.699 53.56H101.699V52.56H100.699V53.56ZM100.699 62.072V63.072H101.699V62.072H100.699ZM63.1305 62.072H62.1305V63.072H63.1305V62.072ZM63.1305 53.56V52.56H62.1305V53.56H63.1305ZM99.6985 53.56V62.072H101.699V53.56H99.6985ZM100.699 61.072H63.1305V63.072H100.699V61.072ZM64.1305 62.072V53.56H62.1305V62.072H64.1305ZM63.1305 54.56H100.699V52.56H63.1305V54.56ZM137.565 6.328H138.565V5.328H137.565V6.328ZM137.565 13.56V14.56H138.565V13.56H137.565ZM118.941 13.56V12.56H117.941V13.56H118.941ZM118.941 25.016H117.941V26.016H118.941V25.016ZM133.213 25.016H134.213V24.016H133.213V25.016ZM133.213 32.12V33.12H134.213V32.12H133.213ZM118.941 32.12V31.12H117.941V32.12H118.941ZM118.941 51V52H119.941V51H118.941ZM109.981 51H108.981V52H109.981V51ZM109.981 6.328V5.328H108.981V6.328H109.981ZM136.565 6.328V13.56H138.565V6.328H136.565ZM137.565 12.56H118.941V14.56H137.565V12.56ZM117.941 13.56V25.016H119.941V13.56H117.941ZM118.941 26.016H133.213V24.016H118.941V26.016ZM132.213 25.016V32.12H134.213V25.016H132.213ZM133.213 31.12H118.941V33.12H133.213V31.12ZM117.941 32.12V51H119.941V32.12H117.941ZM118.941 50H109.981V52H118.941V50ZM110.981 51V6.328H108.981V51H110.981ZM109.981 7.328H137.565V5.328H109.981V7.328ZM151.599 3.64H152.599V2.64H151.599V3.64ZM151.599 51V52H152.599V51H151.599ZM142.639 51H141.639V52H142.639V51ZM142.639 3.64V2.64H141.639V3.64H142.639ZM150.599 3.64V51H152.599V3.64H150.599ZM151.599 50H142.639V52H151.599V50ZM143.639 51V3.64H141.639V51H143.639ZM142.639 4.64H151.599V2.64H142.639V4.64ZM159.747 9.848L159.04 10.5551L159.055 10.5698L159.07 10.5839L159.747 9.848ZM159.747 2.36L160.439 3.08199L160.44 3.08138L159.747 2.36ZM167.619 2.36L166.912 3.0671L166.927 3.08183L166.942 3.09593L167.619 2.36ZM167.619 9.848L168.311 10.57L168.312 10.5694L167.619 9.848ZM168.131 15.544H169.131V14.544H168.131V15.544ZM168.131 51V52H169.131V51H168.131ZM159.171 51H158.171V52H159.171V51ZM159.171 15.544V14.544H158.171V15.544H159.171ZM163.715 10.32C162.363 10.32 161.289 9.9078 160.424 9.11207L159.07 10.5839C160.338 11.7509 161.91 12.32 163.715 12.32V10.32ZM160.454 9.14089C159.624 8.31087 159.211 7.30937 159.211 6.072H157.211C157.211 7.8213 157.822 9.33713 159.04 10.5551L160.454 9.14089ZM159.211 6.072C159.211 4.83512 159.623 3.86382 160.439 3.08198L159.055 1.63801C157.823 2.81884 157.211 4.32221 157.211 6.072H159.211ZM160.44 3.08138C161.307 2.24905 162.375 1.824 163.715 1.824V-0.176003C161.897 -0.176003 160.321 0.422945 159.054 1.63861L160.44 3.08138ZM163.715 1.824C165.055 1.824 166.093 2.24847 166.912 3.0671L168.326 1.65289C167.097 0.423524 165.533 -0.176003 163.715 -0.176003V1.824ZM166.942 3.09593C167.796 3.8815 168.219 4.84873 168.219 6.072H170.219C170.219 4.30859 169.576 2.80117 168.296 1.62407L166.942 3.09593ZM168.219 6.072C168.219 7.2961 167.795 8.29329 166.926 9.12661L168.312 10.5694C169.577 9.3547 170.219 7.83456 170.219 6.072H168.219ZM166.927 9.12601C166.111 9.90814 165.068 10.32 163.715 10.32V12.32C165.52 12.32 167.079 11.7505 168.311 10.57L166.927 9.12601ZM167.131 15.544V51H169.131V15.544H167.131ZM168.131 50H159.171V52H168.131V50ZM160.171 51V15.544H158.171V51H160.171ZM159.171 16.544H168.131V14.544H159.171V16.544ZM175.64 23.672L176.517 24.1518L176.52 24.1461L175.64 23.672ZM181.848 17.272L182.339 18.1429L182.35 18.1368L181.848 17.272ZM201.816 18.296L201.202 19.086L201.209 19.091L201.216 19.096L201.816 18.296ZM207.64 27.512V28.512H208.917L208.61 27.2719L207.64 27.512ZM197.976 27.512L197.027 27.8282L197.255 28.512H197.976V27.512ZM195.352 23.928L194.752 24.728L194.767 24.7399L194.784 24.7512L195.352 23.928ZM184.792 25.4L185.567 26.0313L185.574 26.0225L184.792 25.4ZM184.792 41.144L184.009 41.7666L184.016 41.7753L184.792 41.144ZM197.976 39.032V38.032H197.261L197.029 38.7083L197.976 39.032ZM207.64 39.032L208.608 39.2796L208.927 38.032H207.64V39.032ZM201.816 48.184L202.43 48.9727L202.43 48.9727L201.816 48.184ZM181.848 49.336L181.345 50.2009L181.356 50.2068L181.848 49.336ZM175.64 42.936L174.759 43.4101L174.762 43.4158L175.64 42.936ZM174.4 33.272C174.4 29.7403 175.117 26.7111 176.517 24.1518L174.762 23.1922C173.175 26.0943 172.4 29.465 172.4 33.272H174.4ZM176.52 24.1461C177.927 21.5326 179.865 19.5398 182.339 18.1428L181.356 16.4012C178.54 17.9909 176.338 20.2647 174.759 23.1979L176.52 24.1461ZM182.35 18.1368C184.825 16.6993 187.678 15.968 190.936 15.968V13.968C187.367 13.968 184.16 14.7727 181.345 16.4072L182.35 18.1368ZM190.936 15.968C195.157 15.968 198.554 17.0307 201.202 19.086L202.429 17.506C199.359 15.124 195.503 13.968 190.936 13.968V15.968ZM201.216 19.096C203.909 21.1161 205.735 23.9777 206.669 27.7521L208.61 27.2719C207.581 23.1103 205.525 19.8279 202.416 17.496L201.216 19.096ZM207.64 26.512H197.976V28.512H207.64V26.512ZM198.924 27.1958C198.349 25.4708 197.349 24.091 195.919 23.1048L194.784 24.7512C195.828 25.4716 196.578 26.4812 197.027 27.8282L198.924 27.1958ZM195.952 23.128C194.551 22.0778 192.835 21.584 190.872 21.584V23.584C192.492 23.584 193.762 23.9862 194.752 24.728L195.952 23.128ZM190.872 21.584C188.03 21.584 185.706 22.6438 184.009 24.7775L185.574 26.0225C186.864 24.4016 188.593 23.584 190.872 23.584V21.584ZM184.016 24.7687C182.325 26.846 181.552 29.728 181.552 33.272H183.552C183.552 29.9894 184.271 27.6234 185.567 26.0313L184.016 24.7687ZM181.552 33.272C181.552 36.7789 182.328 39.6528 184.009 41.7665L185.574 40.5215C184.269 38.8805 183.552 36.5065 183.552 33.272H181.552ZM184.016 41.7753C185.716 43.8643 188.039 44.896 190.872 44.896V42.896C188.584 42.896 186.853 42.093 185.567 40.5127L184.016 41.7753ZM190.872 44.896C192.833 44.896 194.543 44.4565 195.932 43.5051C197.327 42.5505 198.311 41.1401 198.922 39.3557L197.029 38.7083C196.53 40.1665 195.776 41.1882 194.803 41.8549C193.824 42.5249 192.536 42.896 190.872 42.896V44.896ZM197.976 40.032H207.64V38.032H197.976V40.032ZM206.671 38.7844C205.74 42.4275 203.913 45.2809 201.201 47.3953L202.43 48.9727C205.52 46.5644 207.577 43.3165 208.608 39.2796L206.671 38.7844ZM201.201 47.3953C198.506 49.4958 195.107 50.576 190.936 50.576V52.576C195.468 52.576 199.323 51.3949 202.43 48.9727L201.201 47.3953ZM190.936 50.576C187.673 50.576 184.817 49.8638 182.339 48.4652L181.356 50.2068C184.169 51.7949 187.372 52.576 190.936 52.576V50.576ZM182.35 48.4712C179.865 47.0286 177.924 45.0296 176.517 42.4562L174.762 43.4158C176.341 46.3037 178.539 48.5714 181.345 50.2008L182.35 48.4712ZM176.52 42.4619C175.117 39.8566 174.4 36.8033 174.4 33.272H172.4C172.4 37.0794 173.175 40.4687 174.759 43.4101L176.52 42.4619ZM233.916 51L233.133 51.6231L233.434 52H233.916V51ZM221.884 35.896L222.666 35.2729L220.884 33.0357V35.896H221.884ZM221.884 51V52H222.884V51H221.884ZM212.924 51H211.924V52H212.924V51ZM212.924 3.64V2.64H211.924V3.64H212.924ZM221.884 3.64H222.884V2.64H221.884V3.64ZM221.884 30.584H220.884V33.4587L222.668 31.2046L221.884 30.584ZM233.788 15.544V14.544H233.304L233.003 14.9234L233.788 15.544ZM245.436 15.544L246.187 16.2037L247.644 14.544H245.436V15.544ZM229.82 33.336L229.068 32.6763L228.484 33.3411L229.073 34.0014L229.82 33.336ZM245.564 51V52H247.794L246.31 50.3346L245.564 51ZM234.698 50.3769L222.666 35.2729L221.101 36.5191L233.133 51.6231L234.698 50.3769ZM220.884 35.896V51H222.884V35.896H220.884ZM221.884 50H212.924V52H221.884V50ZM213.924 51V3.64H211.924V51H213.924ZM212.924 4.64H221.884V2.64H212.924V4.64ZM220.884 3.64V30.584H222.884V3.64H220.884ZM222.668 31.2046L234.572 16.1646L233.003 14.9234L221.099 29.9634L222.668 31.2046ZM233.788 16.544H245.436V14.544H233.788V16.544ZM244.684 14.8843L229.068 32.6763L230.571 33.9957L246.187 16.2037L244.684 14.8843ZM229.073 34.0014L244.817 51.6654L246.31 50.3346L230.566 32.6706L229.073 34.0014ZM245.564 50H233.916V52H245.564V50ZM254.778 50.04L254.358 50.9475L254.365 50.9507L254.372 50.9538L254.778 50.04ZM249.274 45.752L248.47 46.3459L248.474 46.352L248.479 46.358L249.274 45.752ZM247.098 39.8V38.8H246.038L246.1 39.8587L247.098 39.8ZM256.122 39.8L257.115 39.676L257.005 38.8H256.122V39.8ZM258.106 43.192L257.493 43.9814L257.499 43.9867L257.506 43.992L258.106 43.192ZM266.49 43.512L265.919 42.6911L265.911 42.6971L265.902 42.7033L266.49 43.512ZM266.17 38.328L265.71 39.2158L265.73 39.2258L265.749 39.235L266.17 38.328ZM260.602 36.408L260.86 35.4418L260.849 35.4388L260.838 35.436L260.602 36.408ZM254.074 34.424L253.695 35.3492L253.703 35.3525L254.074 34.424ZM249.722 31.288L248.96 31.935L248.966 31.9416L248.971 31.9481L249.722 31.288ZM249.594 20.216L248.779 19.6368L248.774 19.644L248.769 19.6513L249.594 20.216ZM254.458 16.376L254.056 15.4607L254.049 15.4637L254.458 16.376ZM272.058 18.168L271.412 18.9309L271.42 18.9373L272.058 18.168ZM276.218 26.68V27.68H277.292L277.216 26.6088L276.218 26.68ZM267.642 26.68L266.647 26.7705L266.729 27.68H267.642V26.68ZM265.85 23.352L265.21 24.1202L265.228 24.1346L265.245 24.1482L265.85 23.352ZM257.914 22.968L257.36 22.1359L257.35 22.1423L257.341 22.1488L257.914 22.968ZM258.426 28.216L257.954 29.0975L257.967 29.1041L257.979 29.1104L258.426 28.216ZM263.994 30.072L263.748 31.0412L263.752 31.0421L263.994 30.072ZM274.618 35.256L273.847 35.8917L273.857 35.9041L273.867 35.9161L274.618 35.256ZM276.538 40.888H277.538V40.8789L277.538 40.8698L276.538 40.888ZM274.81 46.392L273.995 45.8128L273.99 45.82L273.985 45.8273L274.81 46.392ZM269.946 50.232L270.34 51.1512L270.349 51.1473L269.946 50.232ZM262.586 50.576C259.804 50.576 257.343 50.0854 255.185 49.1262L254.372 50.9538C256.822 52.0426 259.566 52.576 262.586 52.576V50.576ZM255.199 49.1325C253.023 48.1255 251.325 46.7927 250.07 45.146L248.479 46.358C249.955 48.2953 251.926 49.8212 254.358 50.9475L255.199 49.1325ZM250.079 45.1581C248.869 43.5184 248.213 41.7195 248.097 39.7413L246.1 39.8587C246.24 42.2325 247.035 44.4016 248.47 46.3459L250.079 45.1581ZM247.098 40.8H256.122V38.8H247.098V40.8ZM255.13 39.924C255.336 41.5697 256.145 42.9335 257.493 43.9814L258.72 42.4026C257.764 41.6585 257.25 40.7609 257.115 39.676L255.13 39.924ZM257.506 43.992C258.903 45.0391 260.595 45.536 262.522 45.536V43.536C260.951 43.536 259.7 43.1369 258.706 42.392L257.506 43.992ZM262.522 45.536C264.346 45.536 265.906 45.1738 267.079 44.3207L265.902 42.7033C265.198 43.2155 264.113 43.536 262.522 43.536V45.536ZM267.062 44.3329C268.274 43.4896 268.962 42.3255 268.962 40.888H266.962C266.962 41.5839 266.67 42.1691 265.919 42.6911L267.062 44.3329ZM268.962 40.888C268.962 40.1296 268.762 39.423 268.334 38.8105C267.911 38.2061 267.307 37.7532 266.592 37.421L265.749 39.235C266.229 39.4575 266.521 39.7085 266.695 39.9575C266.864 40.1983 266.962 40.4944 266.962 40.888H268.962ZM266.631 37.4402C265.377 36.7903 263.434 36.128 260.86 35.4418L260.345 37.3742C262.891 38.0533 264.66 38.671 265.71 39.2158L266.631 37.4402ZM260.838 35.436C258.219 34.8025 256.093 34.1542 254.446 33.4955L253.703 35.3525C255.47 36.0591 257.695 36.7335 260.367 37.38L260.838 35.436ZM254.454 33.4988C252.939 32.8772 251.614 31.9251 250.474 30.6279L248.971 31.9481C250.306 33.4669 251.882 34.6055 253.695 35.3492L254.454 33.4988ZM250.485 30.641C249.484 29.4614 248.93 27.8154 248.93 25.592H246.93C246.93 28.1473 247.572 30.2986 248.96 31.935L250.485 30.641ZM248.93 25.592C248.93 23.8311 249.424 22.2359 250.42 20.7807L248.769 19.6513C247.546 21.4388 246.93 23.4276 246.93 25.592H248.93ZM250.41 20.7952C251.444 19.3399 252.915 18.1653 254.868 17.2883L254.049 15.4637C251.821 16.4641 250.049 17.8494 248.779 19.6368L250.41 20.7952ZM254.861 17.2913C256.842 16.4196 259.196 15.968 261.946 15.968V13.968C258.98 13.968 256.341 14.455 254.056 15.4607L254.861 17.2913ZM261.946 15.968C266.002 15.968 269.121 16.9894 271.412 18.9309L272.705 17.4051C269.961 15.0799 266.339 13.968 261.946 13.968V15.968ZM271.42 18.9373C273.706 20.8358 274.982 23.4096 275.221 26.7512L277.216 26.6088C276.943 22.7824 275.446 19.6815 272.697 17.3987L271.42 18.9373ZM276.218 25.68H267.642V27.68H276.218V25.68ZM268.638 26.5895C268.487 24.9192 267.759 23.5467 266.456 22.5558L265.245 24.1482C266.075 24.7786 266.542 25.6248 266.647 26.7705L268.638 26.5895ZM266.491 22.5838C265.237 21.5393 263.6 21.072 261.69 21.072V23.072C263.28 23.072 264.416 23.458 265.21 24.1202L266.491 22.5838ZM261.69 21.072C259.965 21.072 258.484 21.3867 257.36 22.1359L258.469 23.8C259.137 23.3546 260.173 23.072 261.69 23.072V21.072ZM257.341 22.1488C256.213 22.9385 255.634 24.0804 255.634 25.464H257.634C257.634 24.7143 257.91 24.1921 258.488 23.7872L257.341 22.1488ZM255.634 25.464C255.634 26.2366 255.83 26.9579 256.244 27.5937C256.654 28.223 257.244 28.7167 257.954 29.0975L258.899 27.3345C258.415 27.0753 258.108 26.7903 257.92 26.5023C257.737 26.2208 257.634 25.886 257.634 25.464H255.634ZM257.979 29.1104C259.273 29.7572 261.213 30.3968 263.748 31.0412L264.241 29.1028C261.741 28.4672 259.97 27.8695 258.874 27.3216L257.979 29.1104ZM263.752 31.0421C266.285 31.6753 268.347 32.3231 269.951 32.9812L270.71 31.1308C268.986 30.4236 266.824 29.7487 264.237 29.1019L263.752 31.0421ZM269.951 32.9812C271.455 33.5984 272.752 34.5625 273.847 35.8917L275.39 34.6203C274.096 33.0482 272.534 31.879 270.71 31.1308L269.951 32.9812ZM273.867 35.9161C274.912 37.105 275.499 38.7347 275.539 40.9062L277.538 40.8698C277.492 38.348 276.8 36.223 275.37 34.5959L273.867 35.9161ZM275.538 40.888C275.538 42.735 275.023 44.366 273.995 45.8128L275.626 46.9712C276.902 45.1754 277.538 43.137 277.538 40.888H275.538ZM273.985 45.8273C272.999 47.268 271.538 48.439 269.544 49.3167L270.349 51.1473C272.621 50.1477 274.403 48.7587 275.636 46.9567L273.985 45.8273ZM269.553 49.3129C267.612 50.1444 265.298 50.576 262.586 50.576V52.576C265.507 52.576 268.099 52.1116 270.34 51.1511L269.553 49.3129Z" fill="#7B6EF6" mask="url(#path-1-outside-1_505_247)"/>
</g>
<defs>
<filter id="filter0_d_505_247" x="0.416016" y="0.824005" width="280.123" height="69.248" filterUnits="userSpaceOnUse" color-interpolation-filters="sRGB">
<feFlood flood-opacity="0" result="BackgroundImageFix"/>
<feColorMatrix in="SourceAlpha" type="matrix" values="0 0 0 0 0 0 0 0 0 0 0 0 0 0 0 0 0 0 127 0" result="hardAlpha"/>
<feOffset dy="4"/>
<feGaussianBlur stdDeviation="2"/>
<feComposite in2="hardAlpha" operator="out"/>
<feColorMatrix type="matrix" values="0 0 0 0 0 0 0 0 0 0 0 0 0 0 0 0 0 0 0.25 0"/>
<feBlend mode="normal" in2="BackgroundImageFix" result="effect1_dropShadow_505_247"/>
<feBlend mode="normal" in="SourceGraphic" in2="effect1_dropShadow_505_247" result="shape"/>
</filter>
</defs>
</svg>
